<?xml version="1.0" encoding="UTF-8" standalone="no"?>
<svg
   width="165"
   height="36"
   viewBox="0 0 165 36"
   fill="none"
   version="1.1"
   id="svg4"
   sodipodi:docname="logo.svg"
   inkscape:version="1.3.2 (091e20e, 2023-11-25)"
   xmlns:inkscape="http://www.inkscape.org/namespaces/inkscape"
   xmlns:sodipodi="http://sodipodi.sourceforge.net/DTD/sodipodi-0.dtd"
   xmlns="http://www.w3.org/2000/svg"
   xmlns:svg="http://www.w3.org/2000/svg">
  <defs
     id="defs4" />
  <sodipodi:namedview
     id="namedview4"
     pagecolor="#ffffff"
     bordercolor="#000000"
     borderopacity="0.25"
     inkscape:showpageshadow="2"
     inkscape:pageopacity="0.0"
     inkscape:pagecheckerboard="0"
     inkscape:deskcolor="#d1d1d1"
     inkscape:zoom="4.2121212"
     inkscape:cx="101.01799"
     inkscape:cy="17.92446"
     inkscape:window-width="1344"
     inkscape:window-height="788"
     inkscape:window-x="2220"
     inkscape:window-y="213"
     inkscape:window-maximized="0"
     inkscape:current-layer="layer3" />
  <path
     d="M2.5 2.5H33.5V33.5H2.5V2.5Z"
     stroke="#4A6CF7"
     stroke-width="5"
     id="path2" />
  <path
     d="M10 10H26V26L10 10Z"
     fill="#4A6CF7"
     id="path3" />
  <path
     opacity="0.5"
     d="M15.5 20.5C17.5296 22.5296 16.0922 26 13.2218 26C11.4425 26 10 24.5575 10 22.7782C10 19.9078 13.4704 18.4704 15.5 20.5Z"
     fill="#4A6CF7"
     id="path4" />
  <g
     inkscape:groupmode="layer"
     id="layer3"
     inkscape:label="Schfirf2">
    <g
       id="text6"
       style="font-weight:bold;font-size:29.3333px;font-family:Arial;-inkscape-font-specification:'Arial Bold';fill:#000000"
       aria-label="PSWeb">
      <path
         d="M 50.803176,28.726618 V 7.7292461 h 6.803377 q 3.867183,0 5.041661,0.3151038 1.804686,0.4726557 3.022132,2.0624981 1.217447,1.575519 1.217447,4.082026 0,1.933592 -0.701822,3.251298 -0.701823,1.317707 -1.790363,2.076821 -1.074218,0.744791 -2.191404,0.98828 -1.518227,0.300781 -4.39713,0.300781 h -2.76432 v 7.920564 z m 4.239578,-17.445293 v 5.958327 h 2.32031 q 2.506508,0 3.351559,-0.329427 0.845051,-0.329427 1.317706,-1.031249 0.486979,-0.701822 0.486979,-1.63281 0,-1.145832 -0.673176,-1.890623 -0.673177,-0.744791 -1.704425,-0.930989 -0.759114,-0.143229 -3.050778,-0.143229 z m 14.251287,10.613269 4.124995,-0.401041 q 0.372395,2.076821 1.503905,3.050778 1.145832,0.973957 3.079423,0.973957 2.048175,0 3.079424,-0.859374 1.045571,-0.873697 1.045571,-2.033852 0,-0.74479 -0.44401,-1.260415 -0.429687,-0.529947 -1.518227,-0.916666 -0.744791,-0.257812 -3.394527,-0.916665 -3.408851,-0.845051 -4.783849,-2.076821 -1.933592,-1.733071 -1.933592,-4.225255 0,-1.604165 0.902343,-2.993486 0.916666,-1.4036446 2.621091,-2.1341125 1.718748,-0.7304679 4.139318,-0.7304679 3.953121,0 5.944004,1.7330709 2.005206,1.7330705 2.105466,4.6262965 l -4.239578,0.186198 q -0.272136,-1.618488 -1.174478,-2.32031 -0.88802,-0.716145 -2.678383,-0.716145 -1.847654,0 -2.893225,0.759114 -0.673177,0.486978 -0.673177,1.303384 0,0.744791 0.630208,1.274738 0.802082,0.673176 3.895829,1.403644 3.093746,0.730468 4.569005,1.518228 1.489581,0.773436 2.32031,2.134112 0.845051,1.346352 0.845051,3.337235 0,1.804686 -1.002603,3.380205 -1.002603,1.575519 -2.835934,2.348956 -1.833332,0.759113 -4.569006,0.759113 -3.981766,0 -6.115878,-1.833331 -2.134112,-1.847654 -2.549476,-5.371088 z"
         id="path6" />
      <path
         style="font-weight:normal;-inkscape-font-specification:Arial"
         d="M 93.728909,28.726618 88.157301,7.7292461 h 2.850257 l 3.194007,13.7643069 q 0.515624,2.162758 0.88802,4.29687 0.802082,-3.365881 0.945311,-3.881506 L 100.03099,7.7292461 h 3.35155 l 3.00781,10.6275919 q 1.13151,3.953121 1.63281,7.433585 0.40104,-1.990883 1.04558,-4.569005 L 112.363,7.7292461 h 2.79297 l -5.75781,20.9973719 h -2.67838 L 102.294,12.727938 q -0.55859,-2.005206 -0.65885,-2.463539 -0.32943,1.446613 -0.61588,2.463539 l -4.454426,15.99868 z m 33.572881,-4.898432 2.66406,0.329427 q -0.63021,2.334632 -2.33464,3.623693 -1.70442,1.289061 -4.35416,1.289061 -3.33723,0 -5.29947,-2.048174 -1.94791,-2.062498 -1.94791,-5.772129 0,-3.838537 1.97656,-5.958327 1.97656,-2.119789 5.12759,-2.119789 3.05078,0 4.98437,2.076821 1.93359,2.07682 1.93359,5.843743 0,0.229166 -0.0143,0.687499 h -11.34373 q 0.14322,2.506508 1.41796,3.838537 1.27474,1.33203 3.17969,1.33203 1.41796,0 2.42057,-0.744791 1.0026,-0.74479 1.58984,-2.377601 z m -8.46484,-4.167964 h 8.49348 q -0.17187,-1.919269 -0.97395,-2.878903 -1.23177,-1.489582 -3.19401,-1.489582 -1.77604,0 -2.99349,1.188801 -1.20312,1.188801 -1.33203,3.179684 z m 16.74347,9.066396 H 133.1885 V 7.7292461 h 2.57812 v 7.4908769 q 1.63281,-2.048175 4.16796,-2.048175 1.40365,0 2.64974,0.572916 1.26042,0.558593 2.0625,1.589842 0.8164,1.016926 1.27474,2.463539 0.45833,1.446613 0.45833,3.093746 0,3.910152 -1.93359,6.044264 -1.93359,2.134112 -4.64062,2.134112 -2.69271,0 -4.22526,-2.248695 z m -0.0286,-7.720043 q 0,2.735674 0.74479,3.95312 1.21744,1.990883 3.29426,1.990883 1.69011,0 2.92188,-1.460936 1.23177,-1.475258 1.23177,-4.382807 0,-2.979163 -1.1888,-4.39713 -1.17448,-1.417968 -2.85026,-1.417968 -1.6901,0 -2.92187,1.475259 -1.23177,1.460936 -1.23177,4.239579 z"
         id="path7" />
    </g>
  </g>
</svg>
